<mxfile host="app.diagrams.net" modified="2024-05-19T12:56:41.864Z" agent="Mozilla/5.0 (X11; Linux x86_64; rv:125.0) Gecko/20100101 Firefox/125.0" etag="BWsRZQ3Zd4Aj4dx562tY" version="24.4.4" type="device">
  <diagram name="Page-1" id="Z4Dh27uId-sLZaI8FPwl">
    <mxGraphModel dx="794" dy="1138" grid="1" gridSize="10" guides="1" tooltips="1" connect="1" arrows="1" fold="1" page="1" pageScale="1" pageWidth="850" pageHeight="1100" math="0" shadow="0">
      <root>
        <mxCell id="0" />
        <mxCell id="1" parent="0" />
        <mxCell id="Q05IBCCYf4yiMKICGMBC-3" value="" style="edgeStyle=orthogonalEdgeStyle;rounded=0;orthogonalLoop=1;jettySize=auto;html=1;" edge="1" parent="1" source="Q05IBCCYf4yiMKICGMBC-1" target="Q05IBCCYf4yiMKICGMBC-2">
          <mxGeometry relative="1" as="geometry" />
        </mxCell>
        <mxCell id="Q05IBCCYf4yiMKICGMBC-1" value="Start" style="ellipse;whiteSpace=wrap;html=1;aspect=fixed;" vertex="1" parent="1">
          <mxGeometry x="220" y="590" width="80" height="80" as="geometry" />
        </mxCell>
        <mxCell id="Q05IBCCYf4yiMKICGMBC-5" value="" style="edgeStyle=orthogonalEdgeStyle;rounded=0;orthogonalLoop=1;jettySize=auto;html=1;" edge="1" parent="1" source="Q05IBCCYf4yiMKICGMBC-2" target="Q05IBCCYf4yiMKICGMBC-4">
          <mxGeometry relative="1" as="geometry" />
        </mxCell>
        <mxCell id="Q05IBCCYf4yiMKICGMBC-2" value="Import Dataset" style="whiteSpace=wrap;html=1;" vertex="1" parent="1">
          <mxGeometry x="200" y="720" width="120" height="60" as="geometry" />
        </mxCell>
        <mxCell id="Q05IBCCYf4yiMKICGMBC-7" value="" style="edgeStyle=orthogonalEdgeStyle;rounded=0;orthogonalLoop=1;jettySize=auto;html=1;" edge="1" parent="1" source="Q05IBCCYf4yiMKICGMBC-4" target="Q05IBCCYf4yiMKICGMBC-6">
          <mxGeometry relative="1" as="geometry" />
        </mxCell>
        <mxCell id="Q05IBCCYf4yiMKICGMBC-4" value="&lt;div&gt;Pre-processing&lt;/div&gt;" style="whiteSpace=wrap;html=1;" vertex="1" parent="1">
          <mxGeometry x="200" y="820" width="120" height="60" as="geometry" />
        </mxCell>
        <mxCell id="Q05IBCCYf4yiMKICGMBC-9" value="" style="edgeStyle=orthogonalEdgeStyle;rounded=0;orthogonalLoop=1;jettySize=auto;html=1;" edge="1" parent="1" source="Q05IBCCYf4yiMKICGMBC-6" target="Q05IBCCYf4yiMKICGMBC-8">
          <mxGeometry relative="1" as="geometry" />
        </mxCell>
        <mxCell id="Q05IBCCYf4yiMKICGMBC-6" value="Importance Variable" style="whiteSpace=wrap;html=1;" vertex="1" parent="1">
          <mxGeometry x="200" y="920" width="120" height="60" as="geometry" />
        </mxCell>
        <mxCell id="Q05IBCCYf4yiMKICGMBC-11" value="" style="edgeStyle=orthogonalEdgeStyle;rounded=0;orthogonalLoop=1;jettySize=auto;html=1;" edge="1" parent="1" source="Q05IBCCYf4yiMKICGMBC-8" target="Q05IBCCYf4yiMKICGMBC-10">
          <mxGeometry relative="1" as="geometry" />
        </mxCell>
        <mxCell id="Q05IBCCYf4yiMKICGMBC-8" value="&lt;div&gt;Random Forest&lt;/div&gt;&lt;div&gt;Classification&lt;br&gt;&lt;/div&gt;" style="whiteSpace=wrap;html=1;" vertex="1" parent="1">
          <mxGeometry x="200" y="1030" width="120" height="60" as="geometry" />
        </mxCell>
        <mxCell id="Q05IBCCYf4yiMKICGMBC-13" value="" style="edgeStyle=orthogonalEdgeStyle;rounded=0;orthogonalLoop=1;jettySize=auto;html=1;" edge="1" parent="1" source="Q05IBCCYf4yiMKICGMBC-10" target="Q05IBCCYf4yiMKICGMBC-12">
          <mxGeometry relative="1" as="geometry" />
        </mxCell>
        <mxCell id="Q05IBCCYf4yiMKICGMBC-16" value="YES" style="edgeLabel;html=1;align=center;verticalAlign=middle;resizable=0;points=[];" vertex="1" connectable="0" parent="Q05IBCCYf4yiMKICGMBC-13">
          <mxGeometry x="-0.1667" y="-3" relative="1" as="geometry">
            <mxPoint as="offset" />
          </mxGeometry>
        </mxCell>
        <mxCell id="Q05IBCCYf4yiMKICGMBC-15" value="" style="edgeStyle=orthogonalEdgeStyle;rounded=0;orthogonalLoop=1;jettySize=auto;html=1;" edge="1" parent="1" source="Q05IBCCYf4yiMKICGMBC-10" target="Q05IBCCYf4yiMKICGMBC-14">
          <mxGeometry relative="1" as="geometry" />
        </mxCell>
        <mxCell id="Q05IBCCYf4yiMKICGMBC-17" value="NO" style="edgeLabel;html=1;align=center;verticalAlign=middle;resizable=0;points=[];" vertex="1" connectable="0" parent="Q05IBCCYf4yiMKICGMBC-15">
          <mxGeometry x="-0.175" y="-1" relative="1" as="geometry">
            <mxPoint as="offset" />
          </mxGeometry>
        </mxCell>
        <mxCell id="Q05IBCCYf4yiMKICGMBC-10" value="&lt;div&gt;Login&lt;/div&gt;&lt;div&gt;Success&lt;br&gt;&lt;/div&gt;" style="rhombus;whiteSpace=wrap;html=1;" vertex="1" parent="1">
          <mxGeometry x="220" y="1140" width="80" height="80" as="geometry" />
        </mxCell>
        <mxCell id="Q05IBCCYf4yiMKICGMBC-12" value="&lt;div&gt;Access FHIR&lt;/div&gt;&lt;div&gt;Data&lt;br&gt;&lt;/div&gt;" style="whiteSpace=wrap;html=1;" vertex="1" parent="1">
          <mxGeometry x="360" y="1150" width="120" height="60" as="geometry" />
        </mxCell>
        <mxCell id="Q05IBCCYf4yiMKICGMBC-14" value="End" style="ellipse;whiteSpace=wrap;html=1;" vertex="1" parent="1">
          <mxGeometry x="220" y="1287" width="80" height="80" as="geometry" />
        </mxCell>
      </root>
    </mxGraphModel>
  </diagram>
</mxfile>
